G04 EAGLE Gerber RS-274X export*
G75*
%MOMM*%
%FSLAX34Y34*%
%LPD*%
%INSoldermask Top*%
%IPPOS*%
%AMOC8*
5,1,8,0,0,1.08239X$1,22.5*%
G01*
%ADD10R,1.203200X1.303200*%
%ADD11C,0.349006*%
%ADD12R,2.032000X2.032000*%
%ADD13C,2.032000*%
%ADD14R,2.183200X2.183200*%
%ADD15C,2.183200*%
%ADD16C,3.378200*%
%ADD17C,1.574800*%
%ADD18C,2.543200*%


D10*
X157480Y519820D03*
X157480Y536820D03*
X180340Y519820D03*
X180340Y536820D03*
D11*
X194729Y547689D02*
X212971Y547689D01*
X194729Y547689D02*
X194729Y552131D01*
X212971Y552131D01*
X212971Y547689D01*
X212971Y551004D02*
X194729Y551004D01*
X194729Y534989D02*
X212971Y534989D01*
X194729Y534989D02*
X194729Y539431D01*
X212971Y539431D01*
X212971Y534989D01*
X212971Y538304D02*
X194729Y538304D01*
X194729Y522289D02*
X212971Y522289D01*
X194729Y522289D02*
X194729Y526731D01*
X212971Y526731D01*
X212971Y522289D01*
X212971Y525604D02*
X194729Y525604D01*
X194729Y509589D02*
X212971Y509589D01*
X194729Y509589D02*
X194729Y514031D01*
X212971Y514031D01*
X212971Y509589D01*
X212971Y512904D02*
X194729Y512904D01*
X244229Y509589D02*
X262471Y509589D01*
X244229Y509589D02*
X244229Y514031D01*
X262471Y514031D01*
X262471Y509589D01*
X262471Y512904D02*
X244229Y512904D01*
X244229Y522289D02*
X262471Y522289D01*
X244229Y522289D02*
X244229Y526731D01*
X262471Y526731D01*
X262471Y522289D01*
X262471Y525604D02*
X244229Y525604D01*
X244229Y534989D02*
X262471Y534989D01*
X244229Y534989D02*
X244229Y539431D01*
X262471Y539431D01*
X262471Y534989D01*
X262471Y538304D02*
X244229Y538304D01*
X244229Y547689D02*
X262471Y547689D01*
X244229Y547689D02*
X244229Y552131D01*
X262471Y552131D01*
X262471Y547689D01*
X262471Y551004D02*
X244229Y551004D01*
D12*
X370840Y558800D03*
D13*
X370840Y584200D03*
X370840Y609600D03*
D14*
X-729500Y182800D03*
D15*
X-729500Y157400D03*
X-729500Y132000D03*
X-729500Y106600D03*
X-729500Y81200D03*
X-729500Y55800D03*
D14*
X-729500Y411400D03*
D15*
X-729500Y386000D03*
X-729500Y360600D03*
X-729500Y335200D03*
X-729500Y309800D03*
X-729500Y284400D03*
X-729500Y259000D03*
X-729500Y233600D03*
D14*
X-805700Y513000D03*
D15*
X-780300Y513000D03*
X-805700Y487600D03*
X-780300Y487600D03*
X-805700Y462200D03*
X-780300Y462200D03*
X-805700Y436800D03*
X-780300Y436800D03*
X-805700Y411400D03*
X-780300Y411400D03*
X-805700Y386000D03*
X-780300Y386000D03*
X-805700Y360600D03*
X-780300Y360600D03*
X-805700Y335200D03*
X-780300Y335200D03*
X-805700Y309800D03*
X-780300Y309800D03*
X-805700Y284400D03*
X-780300Y284400D03*
X-805700Y259000D03*
X-780300Y259000D03*
X-805700Y233600D03*
X-780300Y233600D03*
X-805700Y208200D03*
X-780300Y208200D03*
X-805700Y182800D03*
X-780300Y182800D03*
X-805700Y157400D03*
X-780300Y157400D03*
X-805700Y132000D03*
X-780300Y132000D03*
X-805700Y106600D03*
X-780300Y106600D03*
X-805700Y81200D03*
X-780300Y81200D03*
X-805700Y55800D03*
X-780300Y55800D03*
D14*
X-246900Y274240D03*
D15*
X-246900Y299640D03*
X-246900Y325040D03*
X-246900Y350440D03*
X-246900Y375840D03*
X-246900Y401240D03*
X-246900Y426640D03*
X-246900Y452040D03*
X-246900Y477440D03*
X-246900Y502840D03*
X-246900Y106600D03*
X-246900Y132000D03*
X-246900Y157400D03*
X-246900Y182800D03*
X-246900Y208200D03*
X-246900Y233600D03*
D14*
X-246900Y55800D03*
D15*
X-246900Y81200D03*
D14*
X-196100Y512750D03*
D15*
X-170700Y512750D03*
X-196100Y487350D03*
X-170700Y487350D03*
X-196100Y461950D03*
X-170700Y461950D03*
X-196100Y436550D03*
X-170700Y436550D03*
X-196100Y411150D03*
X-170700Y411150D03*
X-196100Y385750D03*
X-170700Y385750D03*
X-196100Y360350D03*
X-170700Y360350D03*
X-196100Y334950D03*
X-170700Y334950D03*
X-196100Y309550D03*
X-170700Y309550D03*
X-196100Y284150D03*
X-170700Y284150D03*
X-196100Y258750D03*
X-170700Y258750D03*
X-196100Y233350D03*
X-170700Y233350D03*
X-196100Y207950D03*
X-170700Y207950D03*
X-196100Y182550D03*
X-170700Y182550D03*
X-196100Y157150D03*
X-170700Y157150D03*
X-196100Y131750D03*
X-170700Y131750D03*
X-196100Y106350D03*
X-170700Y106350D03*
X-196100Y80950D03*
X-170700Y80950D03*
X-196100Y55550D03*
X-170700Y55550D03*
D16*
X-246900Y538400D03*
X-729500Y551100D03*
X-399300Y30400D03*
D17*
X264160Y695960D03*
X238760Y695960D03*
X213360Y695960D03*
X187960Y695960D03*
D18*
X51050Y619971D03*
X51050Y569171D03*
X51050Y480271D03*
X51050Y429471D03*
X345190Y411269D03*
X345190Y462069D03*
M02*
