M48
;GenerationSoftware,Autodesk,EAGLE,9.6.2*%
;CreationDate,2023-10-31T00:03:57Z*%
FMAT,2
ICI,OFF
METRIC,TZ,000.000
T6C0.300
T5C0.762
T4C1.016
T3C1.100
T2C1.300
T1C3.175
%
G90
M71
T1
X-24690Y53840
X-72950Y55110
X-39930Y3040
T2
X34519Y46207
X5105Y42947
X5105Y48027
X5105Y56917
X5105Y61997
X34519Y41127
T3
X-72950Y18280
X-72950Y15740
X-72950Y13200
X-72950Y10660
X-72950Y8120
X-72950Y5580
X-72950Y41140
X-80570Y41140
X-72950Y36060
X-72950Y33520
X-72950Y30980
X-72950Y28440
X-72950Y25900
X-72950Y23360
X-80570Y51300
X-78030Y51300
X-80570Y48760
X-78030Y48760
X-80570Y46220
X-78030Y46220
X-80570Y43680
X-78030Y43680
X-78030Y41140
X-80570Y38600
X-78030Y38600
X-80570Y36060
X-78030Y36060
X-80570Y33520
X-78030Y33520
X-80570Y30980
X-78030Y30980
X-80570Y28440
X-78030Y28440
X-80570Y25900
X-78030Y25900
X-80570Y23360
X-78030Y23360
X-80570Y20820
X-78030Y20820
X-80570Y18280
X-78030Y18280
X-80570Y15740
X-78030Y15740
X-80570Y13200
X-78030Y13200
X-80570Y10660
X-78030Y10660
X-80570Y8120
X-78030Y8120
X-80570Y5580
X-78030Y5580
X-24690Y27424
X-24690Y29964
X-24690Y32504
X-24690Y35044
X-24690Y37584
X-24690Y40124
X-24690Y42664
X-24690Y45204
X-24690Y47744
X-24690Y50284
X-24690Y10660
X-24690Y13200
X-24690Y15740
X-24690Y18280
X-24690Y20820
X-24690Y23360
X-24690Y5580
X-24690Y8120
X-19610Y51275
X-17070Y51275
X-19610Y48735
X-17070Y48735
X-19610Y46195
X-17070Y46195
X-19610Y43655
X-17070Y43655
X-19610Y41115
X-17070Y41115
X-19610Y38575
X-17070Y38575
X-19610Y36035
X-17070Y36035
X-19610Y33495
X-17070Y33495
X-19610Y30955
X-19610Y28415
X-17070Y28415
X-19610Y25875
X-17070Y25875
X-19610Y23335
X-17070Y23335
X-19610Y20795
X-17070Y20795
X-19610Y18255
X-17070Y18255
X-19610Y15715
X-17070Y15715
X-19610Y13175
X-17070Y13175
X-17070Y30955
X-17070Y10635
X-19610Y8095
X-17070Y8095
X-19610Y5555
X-17070Y5555
X-72950Y38600
X-19610Y10635
T4
X37084Y60960
X37084Y58420
X37084Y55880
T5
X23876Y69596
X21336Y69596
X18796Y69596
X26416Y69596
T6
X14732Y53848
X18796Y55118
M30