G04 EAGLE Gerber RS-274X export*
G75*
%MOMM*%
%FSLAX34Y34*%
%LPD*%
%INTop Copper*%
%IPPOS*%
%AMOC8*
5,1,8,0,0,1.08239X$1,22.5*%
G01*
%ADD10R,1.000000X1.100000*%
%ADD11C,0.147500*%
%ADD12R,1.828800X1.828800*%
%ADD13C,1.828800*%
%ADD14R,1.980000X1.980000*%
%ADD15C,1.980000*%
%ADD16C,1.371600*%
%ADD17C,2.340000*%
%ADD18C,0.254000*%
%ADD19C,0.452400*%


D10*
X157480Y519820D03*
X157480Y536820D03*
X180340Y519820D03*
X180340Y536820D03*
D11*
X194737Y547697D02*
X212963Y547697D01*
X194737Y547697D02*
X194737Y552123D01*
X212963Y552123D01*
X212963Y547697D01*
X212963Y549098D02*
X194737Y549098D01*
X194737Y550499D02*
X212963Y550499D01*
X212963Y551900D02*
X194737Y551900D01*
X194737Y534997D02*
X212963Y534997D01*
X194737Y534997D02*
X194737Y539423D01*
X212963Y539423D01*
X212963Y534997D01*
X212963Y536398D02*
X194737Y536398D01*
X194737Y537799D02*
X212963Y537799D01*
X212963Y539200D02*
X194737Y539200D01*
X194737Y522297D02*
X212963Y522297D01*
X194737Y522297D02*
X194737Y526723D01*
X212963Y526723D01*
X212963Y522297D01*
X212963Y523698D02*
X194737Y523698D01*
X194737Y525099D02*
X212963Y525099D01*
X212963Y526500D02*
X194737Y526500D01*
X194737Y509597D02*
X212963Y509597D01*
X194737Y509597D02*
X194737Y514023D01*
X212963Y514023D01*
X212963Y509597D01*
X212963Y510998D02*
X194737Y510998D01*
X194737Y512399D02*
X212963Y512399D01*
X212963Y513800D02*
X194737Y513800D01*
X244237Y509597D02*
X262463Y509597D01*
X244237Y509597D02*
X244237Y514023D01*
X262463Y514023D01*
X262463Y509597D01*
X262463Y510998D02*
X244237Y510998D01*
X244237Y512399D02*
X262463Y512399D01*
X262463Y513800D02*
X244237Y513800D01*
X244237Y522297D02*
X262463Y522297D01*
X244237Y522297D02*
X244237Y526723D01*
X262463Y526723D01*
X262463Y522297D01*
X262463Y523698D02*
X244237Y523698D01*
X244237Y525099D02*
X262463Y525099D01*
X262463Y526500D02*
X244237Y526500D01*
X244237Y534997D02*
X262463Y534997D01*
X244237Y534997D02*
X244237Y539423D01*
X262463Y539423D01*
X262463Y534997D01*
X262463Y536398D02*
X244237Y536398D01*
X244237Y537799D02*
X262463Y537799D01*
X262463Y539200D02*
X244237Y539200D01*
X244237Y547697D02*
X262463Y547697D01*
X244237Y547697D02*
X244237Y552123D01*
X262463Y552123D01*
X262463Y547697D01*
X262463Y549098D02*
X244237Y549098D01*
X244237Y550499D02*
X262463Y550499D01*
X262463Y551900D02*
X244237Y551900D01*
D12*
X370840Y558800D03*
D13*
X370840Y584200D03*
X370840Y609600D03*
D14*
X-729500Y182800D03*
D15*
X-729500Y157400D03*
X-729500Y132000D03*
X-729500Y106600D03*
X-729500Y81200D03*
X-729500Y55800D03*
D14*
X-729500Y411400D03*
D15*
X-729500Y386000D03*
X-729500Y360600D03*
X-729500Y335200D03*
X-729500Y309800D03*
X-729500Y284400D03*
X-729500Y259000D03*
X-729500Y233600D03*
D14*
X-805700Y513000D03*
D15*
X-780300Y513000D03*
X-805700Y487600D03*
X-780300Y487600D03*
X-805700Y462200D03*
X-780300Y462200D03*
X-805700Y436800D03*
X-780300Y436800D03*
X-805700Y411400D03*
X-780300Y411400D03*
X-805700Y386000D03*
X-780300Y386000D03*
X-805700Y360600D03*
X-780300Y360600D03*
X-805700Y335200D03*
X-780300Y335200D03*
X-805700Y309800D03*
X-780300Y309800D03*
X-805700Y284400D03*
X-780300Y284400D03*
X-805700Y259000D03*
X-780300Y259000D03*
X-805700Y233600D03*
X-780300Y233600D03*
X-805700Y208200D03*
X-780300Y208200D03*
X-805700Y182800D03*
X-780300Y182800D03*
X-805700Y157400D03*
X-780300Y157400D03*
X-805700Y132000D03*
X-780300Y132000D03*
X-805700Y106600D03*
X-780300Y106600D03*
X-805700Y81200D03*
X-780300Y81200D03*
X-805700Y55800D03*
X-780300Y55800D03*
D14*
X-246900Y274240D03*
D15*
X-246900Y299640D03*
X-246900Y325040D03*
X-246900Y350440D03*
X-246900Y375840D03*
X-246900Y401240D03*
X-246900Y426640D03*
X-246900Y452040D03*
X-246900Y477440D03*
X-246900Y502840D03*
X-246900Y106600D03*
X-246900Y132000D03*
X-246900Y157400D03*
X-246900Y182800D03*
X-246900Y208200D03*
X-246900Y233600D03*
D14*
X-246900Y55800D03*
D15*
X-246900Y81200D03*
D14*
X-196100Y512750D03*
D15*
X-170700Y512750D03*
X-196100Y487350D03*
X-170700Y487350D03*
X-196100Y461950D03*
X-170700Y461950D03*
X-196100Y436550D03*
X-170700Y436550D03*
X-196100Y411150D03*
X-170700Y411150D03*
X-196100Y385750D03*
X-170700Y385750D03*
X-196100Y360350D03*
X-170700Y360350D03*
X-196100Y334950D03*
X-170700Y334950D03*
X-196100Y309550D03*
X-170700Y309550D03*
X-196100Y284150D03*
X-170700Y284150D03*
X-196100Y258750D03*
X-170700Y258750D03*
X-196100Y233350D03*
X-170700Y233350D03*
X-196100Y207950D03*
X-170700Y207950D03*
X-196100Y182550D03*
X-170700Y182550D03*
X-196100Y157150D03*
X-170700Y157150D03*
X-196100Y131750D03*
X-170700Y131750D03*
X-196100Y106350D03*
X-170700Y106350D03*
X-196100Y80950D03*
X-170700Y80950D03*
X-196100Y55550D03*
X-170700Y55550D03*
D16*
X264160Y695960D03*
X238760Y695960D03*
X213360Y695960D03*
X187960Y695960D03*
D17*
X51050Y619971D03*
X51050Y569171D03*
X51050Y480271D03*
X51050Y429471D03*
X345190Y411269D03*
X345190Y462069D03*
D18*
X203850Y549910D02*
X189230Y549910D01*
X187960Y551180D01*
D19*
X187960Y551180D03*
D18*
X157480Y536820D02*
X148980Y536820D01*
X147320Y538480D01*
D19*
X147320Y538480D03*
D18*
X203850Y511810D02*
X203850Y493410D01*
X203200Y492760D01*
X162560Y492760D01*
X157480Y497840D01*
X157480Y519820D01*
X143900Y519820D01*
X129540Y505460D01*
X129540Y472440D01*
X139911Y462069D02*
X322580Y462069D01*
X345190Y462069D01*
X139911Y462069D02*
X129540Y472440D01*
X264160Y645160D02*
X264160Y695960D01*
X228600Y492760D02*
X236220Y485140D01*
X322580Y485140D01*
X322580Y462069D01*
X228600Y609600D02*
X264160Y645160D01*
X228600Y609600D02*
X228600Y492760D01*
X51050Y429471D02*
X40429Y429471D01*
X17780Y581660D02*
X25400Y589280D01*
X157480Y589280D01*
X180340Y566420D02*
X180340Y536820D01*
X40429Y429471D02*
X17780Y452120D01*
X17780Y581660D01*
X157480Y589280D02*
X180340Y566420D01*
X180340Y536820D02*
X194700Y536820D01*
X195580Y535940D01*
X202580Y535940D01*
X203850Y537210D01*
X157269Y569171D02*
X51050Y569171D01*
X170180Y556260D02*
X170180Y525780D01*
X176140Y519820D01*
X180340Y519820D01*
X170180Y556260D02*
X157269Y569171D01*
X180340Y519820D02*
X199160Y519820D01*
X203850Y524510D01*
X253350Y524510D02*
X313690Y524510D01*
X347980Y558800D02*
X370840Y558800D01*
X347980Y558800D02*
X313690Y524510D01*
X253350Y511810D02*
X384810Y511810D01*
X386080Y513080D01*
X386080Y579120D01*
X381000Y584200D01*
X370840Y584200D01*
X298450Y537210D02*
X253350Y537210D01*
X307340Y546100D02*
X307340Y607060D01*
X309880Y609600D01*
X370840Y609600D01*
X307340Y546100D02*
X298450Y537210D01*
M02*
